# xmcd CD database file
#
# Track frame offsets:
#	225
#	33644
#	70801
#	108756
#	122776
#	153160
#	166488
#	212257
#	232460
#	247962
#
# Disc length: 3487 seconds
#
# Revision: 4
# Processed by: cddbd v1.5.2PL0 Copyright (c) Steve Scherf et al.
# Submitted via: CDex 1.70beta2
#
DISCID=830d9c0a
DTITLE=Chris Rea - Bull Fighting - The Soundtrack
DYEAR=2011
DGENRE=Blues
TTITLE0=Girl
TTITLE1=Girl And Matador
TTITLE2=Here He Comes
TTITLE3=Gates
TTITLE4=The Work
TTITLE5=The Bull
TTITLE6=The Fight
TTITLE7=Main Tune
TTITLE8=Old Matador
TTITLE9=Finale
EXTD=YEAR: 2011
EXTT0=
EXTT1=
EXTT2=
EXTT3=
EXTT4=
EXTT5=
EXTT6=
EXTT7=
EXTT8=
EXTT9=
PLAYORDER=
